<svg width="334" height="133" viewBox="0 0 334 133" fill="none" xmlns="http://www.w3.org/2000/svg">
<g clip-path="url(#clip0_1_188)">
<rect width="334" height="133" rx="30" fill="#42C83C"/>
<path d="M310.688 -6.45435L310.891 -6.26142C304.04 1.74347 295.63 12.5618 292.915 24.4298C291.56 30.3544 291.626 36.5385 294.014 42.768C296.404 49.0001 301.128 55.3015 309.125 61.4432C329.472 77.0699 348.348 75.4529 362.242 75.4776C369.169 75.49 374.932 75.907 378.958 79.1819C383.001 82.4717 385.221 88.5784 385.26 99.7484L384.703 99.7679C384.665 88.6503 382.452 82.7752 378.61 79.6496C374.751 76.5093 369.177 76.0765 362.224 76.0641C348.358 76.0395 329.298 77.6719 308.788 61.9203C300.733 55.7336 295.934 49.3543 293.498 43.0007C291.06 36.6443 290.997 30.3355 292.375 24.3093C295.128 12.2761 303.634 1.35469 310.483 -6.64763L310.688 -6.45435ZM335.042 -68.4533L335.246 -68.2595C328.395 -60.2546 319.985 -49.4364 317.27 -37.5683C316.532 -34.3391 316.216 -31.033 316.467 -27.6846C319.371 -39.4619 327.696 -50.135 334.422 -57.9936L334.626 -57.8012L334.829 -57.6082C327.978 -49.6033 319.569 -38.7843 316.854 -26.9162C316.781 -26.5975 316.713 -26.2781 316.648 -25.958C316.783 -24.9528 316.97 -23.9442 317.215 -22.9334C320.948 -32.5497 327.763 -41.1905 333.441 -47.8244L333.645 -47.6319L333.849 -47.4381C328.025 -40.6334 321.076 -31.7954 317.455 -22.0081C317.695 -21.1398 317.978 -20.2701 318.306 -19.3994C322.128 -26.6071 327.305 -33.0737 331.775 -38.297L331.979 -38.1045L332.182 -37.9116C327.623 -32.5846 322.376 -26.0107 318.574 -18.7117C318.835 -18.0646 319.122 -17.4168 319.436 -16.7686C322.587 -21.5582 326.122 -25.9 329.3 -29.6132L329.504 -29.4208L329.707 -29.2278C326.472 -25.4477 322.889 -21.04 319.723 -16.1909C319.907 -15.8281 320.099 -15.4648 320.3 -15.1019C322.196 -17.5783 324.113 -19.8863 325.915 -21.9917L326.119 -21.7992L326.322 -21.6063C324.48 -19.4538 322.525 -17.0971 320.599 -14.5721C320.613 -14.5465 320.628 -14.5209 320.643 -14.4953C320.962 -14.8725 321.277 -15.245 321.59 -15.6103L321.794 -15.417L321.997 -15.224C321.65 -14.8184 321.3 -14.4048 320.946 -13.9849C323.66 -9.48236 327.722 -4.97723 333.48 -0.554856C353.827 15.0717 372.703 13.4548 386.597 13.4796C393.524 13.4919 399.287 13.9088 403.313 17.1838C407.356 20.4737 409.576 26.5804 409.615 37.7503L409.058 37.7698C409.02 26.6522 406.806 20.7776 402.965 17.652C399.105 14.5118 393.532 14.0784 386.579 14.066C372.713 14.0414 353.653 15.6739 333.143 -0.0777665C327.401 -4.48798 323.313 -8.99596 320.557 -13.5227C319.558 -12.3316 318.537 -11.0865 317.517 -9.79189C317.652 -9.3879 317.798 -8.98324 317.953 -8.57879C320.342 -2.34667 325.066 3.95467 333.063 10.0964C353.41 25.7232 372.288 24.1064 386.181 24.1312C393.108 24.1436 398.871 24.5604 402.896 27.8351C406.939 31.1249 409.16 37.2323 409.198 48.4025L408.642 48.4219C408.604 37.3045 406.391 31.4294 402.549 28.3036C398.689 25.1633 393.116 24.7306 386.163 24.7182C372.297 24.6935 353.237 26.3252 332.728 10.5739C324.672 4.38699 319.872 -1.99236 317.436 -8.3461C317.319 -8.65165 317.208 -8.95758 317.102 -9.26288C316.442 -8.41711 315.783 -7.55116 315.131 -6.66614C315.117 -6.64331 315.104 -6.61977 315.09 -6.59691C315.317 -3.8889 315.919 -1.15371 316.972 1.59044C319.361 7.82272 324.085 14.1246 332.082 20.2665C352.429 35.893 371.306 34.2762 385.2 34.3009C392.126 34.3133 397.89 34.7302 401.915 38.0052C405.959 41.2951 408.179 47.4018 408.217 58.5717L407.661 58.5911C407.623 47.4734 405.409 41.599 401.567 38.4734C397.707 35.3331 392.135 34.8998 385.182 34.8874C371.316 34.8627 352.256 36.4953 331.746 20.7436C323.69 14.5567 318.891 8.17688 316.455 1.82313C315.476 -0.730147 314.88 -3.27562 314.606 -5.79833C314.275 -5.24195 313.952 -4.67943 313.635 -4.11326C312.945 0.852099 313.332 5.96882 315.307 11.1173C317.696 17.3495 322.419 23.6513 330.416 29.793C350.763 45.4199 369.641 43.8031 383.535 43.8278C390.461 43.8402 396.224 44.257 400.249 47.5317C404.292 50.8215 406.513 56.9289 406.551 68.0991L405.995 68.1185C405.957 57.0011 403.744 51.126 399.902 48.0002C396.042 44.8599 390.469 44.4272 383.516 44.4148C369.65 44.3901 350.59 46.0218 330.081 30.2705C322.025 24.0836 317.225 17.7043 314.789 11.3505C312.977 6.62401 312.477 1.92385 312.907 -2.65345C312.445 -1.29714 312.049 0.0763918 311.732 1.46423C310.377 7.38873 310.443 13.5717 312.831 19.8011C315.221 26.0333 319.944 32.3358 327.941 38.4777C348.288 54.1042 367.166 52.4868 381.059 52.5116C387.986 52.524 393.748 52.9408 397.774 56.2155C401.817 59.5053 404.038 65.6127 404.076 76.7829L403.52 76.8023C403.481 65.6849 401.268 59.8097 397.427 56.684C393.567 53.5437 387.994 53.111 381.041 53.0986C367.174 53.0739 348.115 54.7056 327.606 38.9543C319.55 32.7674 314.75 26.388 312.314 20.0343C309.876 13.678 309.813 7.36906 311.191 1.34288C311.293 0.899836 311.402 0.458362 311.519 0.018425C310.159 2.94824 309.057 5.98066 308.347 9.08578C306.992 15.0104 307.057 21.1936 309.445 27.4231C311.835 33.6554 316.559 39.9573 324.556 46.0992C344.903 61.7257 363.78 60.1089 377.673 60.1336C384.6 60.146 390.363 60.5623 394.389 63.8371C398.432 67.1269 400.653 73.2342 400.691 84.4044L400.135 84.4238C400.096 73.3062 397.883 67.4317 394.041 64.3061C390.181 61.1658 384.609 60.7325 377.656 60.7201C363.789 60.6954 344.729 62.3279 324.22 46.5763C316.164 40.3894 311.364 34.0101 308.928 27.6563C306.49 21.3001 306.427 14.9911 307.805 8.96493C308.662 5.21779 310.077 1.57812 311.827 -1.89875C308.369 3.44413 305.429 9.31421 304.022 15.4672C302.667 21.3918 302.733 27.5754 305.122 33.8049C307.511 40.037 312.234 46.3389 320.231 52.4806C340.578 68.1074 359.455 66.4898 373.349 66.5145C380.276 66.5269 386.039 66.9444 390.064 70.2193C394.107 73.5091 396.328 79.6154 396.367 90.7853L395.81 90.8047C395.772 79.6874 393.558 73.8126 389.717 70.687C385.857 67.5468 380.283 67.1139 373.331 67.1015C359.464 67.0769 340.405 68.7087 319.896 52.9572C311.84 46.7704 307.04 40.3918 304.604 34.0381C302.167 27.6818 302.103 21.3729 303.482 15.3467C305.139 8.09851 308.886 1.25452 313.1 -4.79173C313.142 -4.90061 313.184 -5.00984 313.227 -5.11847C313.279 -5.43283 313.337 -5.74634 313.397 -6.05931C307.387 1.37759 301.103 10.5942 298.826 20.5491C297.471 26.4737 297.536 32.657 299.925 38.8865C302.315 45.1188 307.039 51.4206 315.036 57.5626C335.383 73.1891 354.259 71.5723 368.153 71.597C375.08 71.6093 380.843 72.0263 384.869 75.3013C388.912 78.5911 391.132 84.6977 391.171 95.8677L390.614 95.8872C390.576 84.7696 388.363 78.8946 384.521 75.7689C380.662 72.6286 375.088 72.1958 368.135 72.1835C354.269 72.1588 335.21 73.7907 314.7 58.0391C306.645 51.8524 301.845 45.4736 299.409 39.12C296.971 32.7636 296.908 26.454 298.286 20.4278C300.679 9.96359 307.424 0.340351 313.647 -7.25363C313.653 -7.2827 313.66 -7.31184 313.667 -7.3409C313.891 -8.3198 314.152 -9.29149 314.448 -10.2547C314.527 -12.4884 314.835 -14.6965 315.332 -16.8678C315.375 -17.0552 315.419 -17.2424 315.465 -17.4293C315.292 -20.3136 315.528 -23.1639 316.083 -25.9571C315.562 -29.941 315.857 -33.8714 316.73 -37.6883C319.482 -49.7216 327.989 -60.6434 334.838 -68.6457L335.042 -68.4533ZM304.252 -3.54954L304.456 -3.35661C297.604 4.64827 289.194 15.4666 286.48 27.3346C285.125 33.2592 285.19 39.4433 287.579 45.6728C289.969 51.905 294.692 58.2063 302.689 64.348C323.036 79.9747 341.913 78.3577 355.806 78.3825C362.733 78.3948 368.497 78.8118 372.522 82.0867C376.566 85.3765 378.786 91.4832 378.824 102.653L378.268 102.673C378.229 91.5552 376.016 85.68 372.175 82.5544C368.315 79.4142 362.742 78.9813 355.789 78.969C341.922 78.9443 322.862 80.5768 302.353 64.8251C294.297 58.6384 289.498 52.2592 287.062 45.9055C284.625 39.5491 284.562 33.2403 285.94 27.2141C288.692 15.1809 297.199 4.25949 304.048 -3.74282L304.252 -3.54954ZM297.468 -1.34607L297.671 -1.15314C290.82 6.85174 282.41 17.67 279.695 29.5381C278.34 35.4625 278.405 41.646 280.794 47.8754C283.184 54.1077 287.908 60.4096 295.905 66.5515C316.252 82.1782 335.128 80.5612 349.022 80.5859C355.949 80.5983 361.712 81.0152 365.738 84.2902C369.781 87.58 372.001 93.6867 372.04 104.857L371.483 104.876C371.445 93.7586 369.231 87.884 365.39 84.7584C361.53 81.6183 355.957 81.1848 349.004 81.1724C335.138 81.1477 316.078 82.7803 295.568 67.0286C287.513 60.8418 282.714 54.4626 280.278 48.109C277.84 41.7526 277.777 35.4438 279.155 29.4176C281.908 17.3843 290.414 6.46296 297.263 -1.53936L297.468 -1.34607ZM290.478 0.420458L290.682 0.614247C283.831 8.6192 275.421 19.4373 272.706 31.3055C271.351 37.23 271.416 43.4133 273.805 49.6428C276.195 55.8751 280.919 62.177 288.916 68.3189C309.263 83.9454 328.139 82.3286 342.033 82.3533C348.96 82.3657 354.723 82.7826 358.749 86.0576C362.792 89.3475 365.012 95.4542 365.051 106.624L364.494 106.644C364.456 95.526 362.243 89.6509 358.401 86.5252C354.542 83.3849 348.968 82.9522 342.015 82.9398C328.149 82.9151 309.089 84.5477 288.579 68.796C280.524 62.6091 275.724 56.2293 273.288 49.8755C270.851 43.5193 270.788 37.2102 272.166 31.1841C274.918 19.151 283.425 8.23027 290.274 0.22803L290.478 0.420458ZM283.391 1.97436L283.595 2.16815C276.744 10.1731 268.334 20.9913 265.619 32.8594C264.265 38.7838 264.33 44.9668 266.719 51.1962C269.109 57.4285 273.832 63.7309 281.829 69.8728C302.176 85.4995 321.053 83.882 334.947 83.9067C341.874 83.9191 347.636 84.3365 351.662 87.6115C355.705 90.9013 357.926 97.0075 357.965 108.177L357.408 108.197C357.37 97.0794 355.156 91.2048 351.315 88.0791C347.455 84.9388 341.881 84.5061 334.928 84.4937C321.062 84.469 302.003 86.1009 281.493 70.3494C273.438 64.1625 268.637 57.7832 266.201 51.4294C263.764 45.0732 263.701 38.7641 265.079 32.738C267.831 20.7049 276.338 9.7842 283.187 1.78193L283.391 1.97436ZM276.29 3.49238L276.494 3.68531C269.643 11.6903 261.233 22.5092 258.518 34.3774C257.163 40.3019 257.228 46.4853 259.617 52.7147C262.007 58.9469 266.731 65.2482 274.727 71.39C295.074 87.0168 313.951 85.4005 327.845 85.4252C334.772 85.4376 340.535 85.8538 344.56 89.1287C348.604 92.4185 350.824 98.5258 350.863 109.696L350.306 109.715C350.268 98.5979 348.054 92.7234 344.213 89.5977C340.353 86.4574 334.78 86.0241 327.827 86.0117C313.961 85.987 294.901 87.6194 274.391 71.8679C266.336 65.681 261.536 59.3012 259.1 52.9474C256.663 46.5912 256.599 40.2826 257.977 34.2565C260.729 22.2233 269.237 11.3023 276.086 3.29995L276.29 3.49238ZM269.231 5.10832L269.435 5.30125C262.583 13.3062 254.173 24.1245 251.459 35.9925C250.104 41.9169 250.17 48.0999 252.558 54.3293C254.948 60.5616 259.671 66.864 267.668 73.0059C288.015 88.6327 306.892 87.0151 320.786 87.0398C327.713 87.0522 333.476 87.4696 337.501 90.7446C341.544 94.0344 343.765 100.141 343.804 111.311L343.247 111.33C343.209 100.213 340.995 94.3379 337.154 91.2122C333.294 88.072 327.721 87.6392 320.768 87.6268C306.901 87.6022 287.842 89.234 267.333 73.4825C259.277 67.2957 254.477 60.917 252.041 54.5634C249.604 48.2071 249.541 41.8981 250.919 35.872C253.671 23.8388 262.178 12.9174 269.027 4.91503L269.231 5.10832ZM262.262 6.91827L262.465 7.1112C255.614 15.1161 247.204 25.9344 244.49 37.8024C243.135 43.727 243.2 49.9111 245.589 56.1406C247.979 62.3728 252.702 68.6741 260.699 74.8159C281.046 90.4425 299.923 88.8256 313.816 88.8503C320.743 88.8626 326.507 89.2796 330.532 92.5545C334.575 95.8443 336.796 101.951 336.834 113.121L336.278 113.14C336.239 102.023 334.026 96.1478 330.185 93.0222C326.325 89.8819 320.752 89.4491 313.799 89.4368C299.932 89.4121 280.872 91.0446 260.363 75.2929C252.307 69.1062 247.508 62.727 245.072 56.3733C242.635 50.0169 242.571 43.7082 243.95 37.6819C246.702 25.6487 255.209 14.7273 262.058 6.72499L262.262 6.91827ZM255.416 8.99147L255.619 9.1844C248.768 17.1893 240.358 28.0076 237.644 39.8756C236.288 45.8002 236.354 51.9843 238.743 58.2138C241.132 64.4459 245.856 70.7473 253.853 76.8891C274.2 92.5157 293.076 90.8988 306.97 90.9235C313.897 90.9358 319.66 91.3528 323.686 94.6278C327.729 97.9175 329.949 104.024 329.988 115.194L329.431 115.214C329.393 104.096 327.18 98.221 323.339 95.0954C319.479 91.9552 313.905 91.5223 306.952 91.51C293.086 91.4853 274.027 93.1172 253.517 77.3656C245.462 71.1788 240.662 64.8002 238.226 58.4465C235.788 52.0901 235.725 45.7814 237.104 39.7551C239.856 27.7219 248.362 16.8005 255.211 8.79819L255.416 8.99147ZM248.717 11.3724L248.92 11.5653C242.069 19.5702 233.659 30.3885 230.945 42.2565C229.59 48.1811 229.655 54.3652 232.044 60.5948C234.434 66.8269 239.157 73.1282 247.154 79.27C267.501 94.8967 286.378 93.2805 300.272 93.3052C307.199 93.3176 312.962 93.7338 316.987 97.0087C321.03 100.298 323.251 106.405 323.289 117.575L322.733 117.595C322.695 106.478 320.481 100.602 316.64 97.4763C312.78 94.3361 307.206 93.9033 300.254 93.8909C286.387 93.8662 267.328 95.4981 246.819 79.7466C238.763 73.5597 233.963 67.1811 231.527 60.8274C229.09 54.4711 229.026 48.1623 230.405 42.136C233.157 30.1028 241.664 19.1823 248.513 11.18L248.717 11.3724ZM316.387 -9.65261C315.999 -9.19714 315.606 -8.73349 315.211 -8.26085C315.143 -8.11963 315.079 -7.97681 315.012 -7.8351C315.016 -7.73985 315.021 -7.64459 315.026 -7.54928C315.471 -8.25961 315.925 -8.96093 316.387 -9.65261ZM316.033 -13.1232C315.656 -12.1465 315.309 -11.161 315.001 -10.1658C314.989 -9.79637 314.983 -9.42628 314.984 -9.05556C315.424 -9.94782 315.883 -10.831 316.364 -11.7014C316.242 -12.176 316.131 -12.6497 316.033 -13.1232ZM316.304 -10.4221C316.334 -10.4575 316.364 -10.493 316.394 -10.5283L316.598 -10.3359L316.749 -10.192C316.759 -10.2071 316.77 -10.2219 316.78 -10.237C316.709 -10.4663 316.64 -10.6956 316.575 -10.9247C316.484 -10.7573 316.393 -10.5903 316.304 -10.4221ZM319.366 -15.6376C318.528 -14.3328 317.723 -12.9967 316.964 -11.6333C317.035 -11.3673 317.108 -11.1007 317.187 -10.8344C318.081 -12.1295 318.999 -13.3886 319.922 -14.608C319.73 -14.9512 319.544 -15.2943 319.366 -15.6376ZM320.225 -14.0803C320.023 -13.8134 319.822 -13.5448 319.622 -13.2743C319.833 -13.529 320.042 -13.7831 320.252 -14.0329C320.243 -14.0486 320.234 -14.0646 320.225 -14.0803ZM318.233 -18.052C317.577 -16.7547 316.97 -15.4346 316.42 -14.0957C316.518 -13.5373 316.634 -12.9781 316.766 -12.4181C317.5 -13.7103 318.274 -14.9764 319.074 -16.2137C318.771 -16.8264 318.491 -17.4393 318.233 -18.052ZM315.63 -15.6033C315.417 -14.5182 315.252 -13.425 315.143 -12.3249C315.364 -12.9362 315.596 -13.5441 315.842 -14.1477C315.759 -14.6337 315.688 -15.1189 315.63 -15.6033ZM317.129 -21.1053C316.705 -19.8803 316.334 -18.6411 316.026 -17.3899C316.073 -16.6406 316.149 -15.8892 316.254 -15.1359C316.778 -16.3515 317.35 -17.5493 317.957 -18.7288C317.922 -18.8183 317.886 -18.9074 317.852 -18.9969C317.582 -19.7001 317.342 -20.4035 317.129 -21.1053ZM316.35 -24.2795C316.098 -22.6314 315.965 -20.9661 315.966 -19.288C316.236 -20.2046 316.539 -21.1133 316.868 -22.0144C316.664 -22.7707 316.492 -23.526 316.35 -24.2795Z" fill="url(#paint0_radial_1_188)" fill-opacity="0.58"/>
<path d="M21.07 26.7797V21.5997L24.51 26.7797H25.77V19.4697H24.51V24.6497L21.08 19.4697H19.81V26.7797H21.07ZM29.4181 26.9097C30.7081 26.9097 31.6081 26.2597 31.8181 25.1797H30.6881C30.5481 25.6497 30.1081 25.9097 29.4381 25.9097C28.6281 25.9097 28.1681 25.4697 28.0781 24.5997L31.7981 24.5897V24.2197C31.7981 22.6797 30.8581 21.6897 29.3781 21.6897C27.9281 21.6897 26.9181 22.7597 26.9181 24.3097C26.9181 25.8397 27.9481 26.9097 29.4181 26.9097ZM29.3881 22.6897C30.1181 22.6897 30.5881 23.1397 30.5881 23.8197H28.1081C28.2281 23.0797 28.6681 22.6897 29.3881 22.6897ZM33.6497 26.7797H34.8397L35.5197 24.6597C35.7697 23.8497 35.8597 23.4997 35.9097 23.2697C35.9497 23.5197 36.0597 23.9897 36.2597 24.6397L36.9397 26.7797H38.0797L39.7897 21.8397H38.4997L37.8397 23.9597C37.7497 24.2697 37.5897 24.8597 37.5097 25.2297C37.4497 24.8997 37.2497 24.1597 37.1897 23.9597L36.5297 21.8397H35.2897L34.6097 23.9597C34.4497 24.4497 34.3597 24.7597 34.2697 25.2397C34.1797 24.7797 34.0797 24.3497 33.9697 23.9597L33.3197 21.8397H32.0497L33.6497 26.7797ZM44.0338 26.7797L44.6238 25.0897H47.3538L47.9438 26.7797H49.2938L46.6538 19.4697H45.3438L42.7038 26.7797H44.0338ZM45.8338 21.6497C45.9038 21.4497 45.9638 21.2297 45.9938 21.0897C46.0138 21.2397 46.0838 21.4597 46.1438 21.6497L46.9838 24.0097H45.0038L45.8338 21.6497ZM51.2604 26.7797V19.3397H50.0504V26.7797H51.2604ZM53.6702 26.7797L53.7502 26.0097C54.0402 26.5797 54.6702 26.9097 55.4102 26.9097C56.8302 26.9097 57.7602 25.8597 57.7602 24.3397C57.7602 22.7797 56.9002 21.6797 55.4902 21.6797C54.7402 21.6797 54.0802 22.0097 53.7602 22.5597V19.3397H52.5402V26.7797H53.6702ZM53.7702 24.2897C53.7702 23.3997 54.3202 22.7797 55.1602 22.7797C56.0202 22.7797 56.5302 23.4097 56.5302 24.2897C56.5302 25.1697 56.0202 25.7897 55.1602 25.7897C54.3202 25.7897 53.7702 25.1797 53.7702 24.2897ZM61.9644 21.8397V24.4297C61.9644 25.3697 61.5944 25.8197 60.8244 25.8197C60.1444 25.8197 59.7744 25.4397 59.7744 24.4997V21.8397H58.5544V24.9297C58.5544 26.1397 59.2244 26.9097 60.3644 26.9097C61.0244 26.9097 61.6644 26.5897 61.9644 26.1197L62.0544 26.7797H63.1844V21.8397H61.9644ZM65.6645 26.7797V23.9797C65.6645 23.1797 66.1345 22.7997 66.7145 22.7997C67.2945 22.7997 67.6645 23.1697 67.6645 23.8597V26.7797H68.8845V23.9797C68.8845 23.1697 69.3345 22.7897 69.9245 22.7897C70.5045 22.7897 70.8845 23.1597 70.8845 23.8697V26.7797H72.0945V23.5497C72.0945 22.4097 71.4345 21.6897 70.2345 21.6897C69.4845 21.6897 68.9045 22.0597 68.6545 22.6297C68.3945 22.0597 67.8745 21.6897 67.1245 21.6897C66.4145 21.6897 65.9145 22.0097 65.6645 22.4197L65.5645 21.8397H64.4445V26.7797H65.6645Z" fill="#FBFBFB"/>
<path d="M20.053 109.805H23.901C25.864 109.805 26.995 108.856 26.995 107.231C26.995 106.126 26.488 105.372 25.487 105.047C26.384 104.67 26.852 103.916 26.852 102.863C26.852 101.277 25.708 100.302 23.836 100.302H20.053V109.805ZM23.693 101.771C24.629 101.771 25.149 102.213 25.149 103.032C25.149 103.877 24.642 104.358 23.732 104.358H21.717V101.771H23.693ZM23.836 105.762C24.759 105.762 25.292 106.217 25.292 107.023C25.292 107.881 24.772 108.336 23.836 108.336H21.717V105.762H23.836ZM29.0798 102.096C29.5998 102.096 30.0288 101.667 30.0288 101.134C30.0288 100.601 29.5998 100.185 29.0798 100.185C28.5338 100.185 28.1048 100.601 28.1048 101.134C28.1048 101.667 28.5338 102.096 29.0798 102.096ZM28.2868 109.805H29.8728V103.383H28.2868V109.805ZM33.1104 109.805V100.133H31.5374V109.805H33.1104ZM36.3731 109.805V100.133H34.8001V109.805H36.3731ZM38.8298 102.096C39.3498 102.096 39.7788 101.667 39.7788 101.134C39.7788 100.601 39.3498 100.185 38.8298 100.185C38.2838 100.185 37.8548 100.601 37.8548 101.134C37.8548 101.667 38.2838 102.096 38.8298 102.096ZM38.0368 109.805H39.6228V103.383H38.0368V109.805ZM44.1344 109.974C45.8114 109.974 46.9814 109.129 47.2544 107.725H45.7854C45.6034 108.336 45.0314 108.674 44.1604 108.674C43.1074 108.674 42.5094 108.102 42.3924 106.971L47.2284 106.958V106.477C47.2284 104.475 46.0064 103.188 44.0824 103.188C42.1974 103.188 40.8844 104.579 40.8844 106.594C40.8844 108.583 42.2234 109.974 44.1344 109.974ZM44.0954 104.488C45.0444 104.488 45.6554 105.073 45.6554 105.957H42.4314C42.5874 104.995 43.1594 104.488 44.0954 104.488ZM58.1376 109.805V108.271H53.8996V105.749H57.6956V104.28H53.8996V101.836H58.1376V100.302H52.2356V109.805H58.1376ZM60.5007 102.096C61.0207 102.096 61.4497 101.667 61.4497 101.134C61.4497 100.601 61.0207 100.185 60.5007 100.185C59.9547 100.185 59.5257 100.601 59.5257 101.134C59.5257 101.667 59.9547 102.096 60.5007 102.096ZM59.7077 109.805H61.2937V103.383H59.7077V109.805ZM64.5313 109.805V100.133H62.9583V109.805H64.5313ZM66.988 102.096C67.508 102.096 67.937 101.667 67.937 101.134C67.937 100.601 67.508 100.185 66.988 100.185C66.442 100.185 66.013 100.601 66.013 101.134C66.013 101.667 66.442 102.096 66.988 102.096ZM66.195 109.805H67.781V103.383H66.195V109.805ZM68.9256 107.855C68.9256 109.116 69.9396 109.974 71.5386 109.974C73.1246 109.974 74.2296 109.168 74.2296 107.868C74.2296 106.88 73.6836 106.386 72.6046 106.139L71.4476 105.866C70.9016 105.736 70.6156 105.502 70.6156 105.138C70.6156 104.657 70.9796 104.371 71.6036 104.371C72.2146 104.371 72.5786 104.722 72.5916 105.268H74.0996C74.0866 104.02 73.1116 103.188 71.6686 103.188C70.1866 103.188 69.1206 103.942 69.1206 105.203C69.1206 106.23 69.6796 106.776 70.8366 107.036L71.9936 107.309C72.5656 107.439 72.7346 107.673 72.7346 107.998C72.7346 108.466 72.3316 108.765 71.5906 108.765C70.8626 108.765 70.4466 108.414 70.4336 107.855H68.9256ZM77.0232 109.805V106.295C77.0232 105.333 77.6082 104.631 78.6092 104.631C79.4152 104.631 79.9482 105.151 79.9482 106.23V109.805H81.5342V105.853C81.5342 104.189 80.7022 103.188 79.1162 103.188C78.1932 103.188 77.4392 103.591 77.0362 104.215V100.133H75.4372V109.805H77.0232Z" fill="#FBFBFB"/>
<path d="M22.971 53.8135V47.9235H29.127V53.8135H31.559V39.9245H29.127V45.6625H22.971V39.9245H20.539V53.8135H22.971ZM37.0916 54.0605C38.5546 54.0605 39.8276 53.3955 40.2266 52.4265L40.3976 53.8135H42.4306V48.1135C42.4306 45.5105 40.8726 44.1425 38.3456 44.1425C35.7996 44.1425 34.1276 45.4725 34.1276 47.5055H36.1036C36.1036 46.5175 36.8636 45.9475 38.2316 45.9475C39.4096 45.9475 40.1696 46.4605 40.1696 47.7335V47.9425L37.3576 48.1515C35.1346 48.3225 33.8806 49.4055 33.8806 51.1345C33.8806 52.9015 35.0966 54.0605 37.0916 54.0605ZM37.8516 52.3125C36.8066 52.3125 36.2366 51.8945 36.2366 51.0395C36.2366 50.2795 36.7876 49.8045 38.2316 49.6715L40.1886 49.5195V50.0135C40.1886 51.4575 39.2766 52.3125 37.8516 52.3125ZM44.7077 58.1645H47.0257V52.5595C47.6147 53.5095 48.8307 54.0605 50.2367 54.0605C53.0297 54.0605 54.6257 51.9325 54.6257 49.0065C54.6257 46.0615 52.8777 44.1425 50.2367 44.1425C48.8117 44.1425 47.5767 44.7695 47.0067 45.8525L46.8547 44.4275H44.7077V58.1645ZM47.0447 49.1205C47.0447 47.4295 48.0897 46.2515 49.6857 46.2515C51.3197 46.2515 52.2887 47.4485 52.2887 49.1205C52.2887 50.7925 51.3197 51.9705 49.6857 51.9705C48.0897 51.9705 47.0447 50.8115 47.0447 49.1205ZM56.4714 58.1645H58.7894V52.5595C59.3784 53.5095 60.5944 54.0605 62.0004 54.0605C64.7934 54.0605 66.3894 51.9325 66.3894 49.0065C66.3894 46.0615 64.6414 44.1425 62.0004 44.1425C60.5754 44.1425 59.3404 44.7695 58.7704 45.8525L58.6184 44.4275H56.4714V58.1645ZM58.8084 49.1205C58.8084 47.4295 59.8534 46.2515 61.4494 46.2515C63.0834 46.2515 64.0524 47.4485 64.0524 49.1205C64.0524 50.7925 63.0834 51.9705 61.4494 51.9705C59.8534 51.9705 58.8084 50.8115 58.8084 49.1205ZM69.3941 42.5465C70.1541 42.5465 70.7811 41.9195 70.7811 41.1405C70.7811 40.3615 70.1541 39.7535 69.3941 39.7535C68.5961 39.7535 67.9691 40.3615 67.9691 41.1405C67.9691 41.9195 68.5961 42.5465 69.3941 42.5465ZM68.2351 53.8135H70.5531V44.4275H68.2351V53.8135ZM77.147 54.0605C79.598 54.0605 81.308 52.8255 81.707 50.7735H79.56C79.294 51.6665 78.458 52.1605 77.185 52.1605C75.646 52.1605 74.772 51.3245 74.601 49.6715L81.669 49.6525V48.9495C81.669 46.0235 79.883 44.1425 77.071 44.1425C74.316 44.1425 72.397 46.1755 72.397 49.1205C72.397 52.0275 74.354 54.0605 77.147 54.0605ZM77.09 46.0425C78.477 46.0425 79.37 46.8975 79.37 48.1895H74.658C74.886 46.7835 75.722 46.0425 77.09 46.0425ZM89.4141 44.3895C89.0341 44.2945 88.7111 44.2565 88.3881 44.2565C87.1341 44.2565 86.2411 44.8835 85.8421 45.8145L85.7091 44.4465H83.5241V53.8135H85.8421V49.2535C85.8421 47.4295 86.8871 46.5365 88.5591 46.5365H89.4141V44.3895ZM95.2302 42.1665H99.2962V53.8135H101.728V42.1665H105.794V39.9245H95.2302V42.1665ZM109.629 53.8135V48.6835C109.629 47.2775 110.484 46.2515 111.947 46.2515C113.125 46.2515 113.904 47.0115 113.904 48.5885V53.8135H116.222V48.0375C116.222 45.6055 115.006 44.1425 112.688 44.1425C111.339 44.1425 110.237 44.7315 109.648 45.6435V39.6775H107.311V53.8135H109.629ZM121.293 54.0605C122.756 54.0605 124.029 53.3955 124.428 52.4265L124.599 53.8135H126.632V48.1135C126.632 45.5105 125.074 44.1425 122.547 44.1425C120.001 44.1425 118.329 45.4725 118.329 47.5055H120.305C120.305 46.5175 121.065 45.9475 122.433 45.9475C123.611 45.9475 124.371 46.4605 124.371 47.7335V47.9425L121.559 48.1515C119.336 48.3225 118.082 49.4055 118.082 51.1345C118.082 52.9015 119.298 54.0605 121.293 54.0605ZM122.053 52.3125C121.008 52.3125 120.438 51.8945 120.438 51.0395C120.438 50.2795 120.989 49.8045 122.433 49.6715L124.39 49.5195V50.0135C124.39 51.4575 123.478 52.3125 122.053 52.3125ZM131.227 53.8135V48.7595C131.227 47.2395 132.101 46.2515 133.526 46.2515C134.723 46.2515 135.502 47.0115 135.502 48.5885V53.8135H137.82V48.0375C137.82 45.6055 136.604 44.1425 134.248 44.1425C132.975 44.1425 131.835 44.6935 131.246 45.6435L131.056 44.4275H128.909V53.8135H131.227ZM29.165 79.8135V77.5715H22.971V73.8855H28.519V71.7385H22.971V68.1665H29.165V65.9245H20.539V79.8135H29.165ZM33.7115 79.8135H35.9915L39.9055 70.4275H37.5115L35.8015 74.7405C35.4025 75.7665 35.0605 76.7545 34.9275 77.3435C34.8135 76.8305 34.4905 75.8615 34.0915 74.7405L32.4575 70.4275H29.9875L33.7115 79.8135ZM44.9731 80.0605C47.4241 80.0605 49.1341 78.8255 49.5331 76.7735H47.3861C47.1201 77.6665 46.2841 78.1605 45.0111 78.1605C43.4721 78.1605 42.5981 77.3245 42.4271 75.6715L49.4951 75.6525V74.9495C49.4951 72.0235 47.7091 70.1425 44.8971 70.1425C42.1421 70.1425 40.2231 72.1755 40.2231 75.1205C40.2231 78.0275 42.1801 80.0605 44.9731 80.0605ZM44.9161 72.0425C46.3031 72.0425 47.1961 72.8975 47.1961 74.1895H42.4841C42.7121 72.7835 43.5481 72.0425 44.9161 72.0425ZM57.2403 70.3895C56.8603 70.2945 56.5373 70.2565 56.2143 70.2565C54.9603 70.2565 54.0673 70.8835 53.6683 71.8145L53.5353 70.4465H51.3503V79.8135H53.6683V75.2535C53.6683 73.4295 54.7133 72.5365 56.3853 72.5365H57.2403V70.3895Z" fill="#FBFBFB"/>
</g>
<defs>
<radialGradient id="paint0_radial_1_188" cx="0" cy="0" r="1" gradientTransform="matrix(57.9946 63.7042 -63.4932 62.5192 307.635 45.3418)" gradientUnits="userSpaceOnUse">
<stop stop-color="white"/>
<stop offset="1" stop-color="#1E1E1E" stop-opacity="0"/>
<stop offset="1" stop-color="#0E0E35" stop-opacity="0"/>
<stop offset="1" stop-color="white" stop-opacity="0"/>
</radialGradient>
<clipPath id="clip0_1_188">
<rect width="334" height="133" rx="30" fill="white"/>
</clipPath>
</defs>
</svg>
